# xmcd
#
# Track frame offsets:
#	150
#	13957
#	27369
#	40178
#	55155
#	69758
#	83353
#	97872
#	110854
#	124711
#	138865
#	153865
#	167396
#	181327
#	195153
#	209882
#	224434
#	237899
#	251211
#	265540
#	280870
#
# Disc length: 3935 seconds
#
# Revision: 1
# Processed by: cddbd v1.5.2PL0 Copyright (c) Steve Scherf et al.
# Submitted via: audiograbber 1.83.01
#
DISCID=1a0f5d15
DTITLE=Bud and Joe Billings (Frank Luther and Carson Robinson) - Singing Pals From 
DTITLE=Kansas
DYEAR=1900
DGENRE=Country
TTITLE0=Little Cabin in the Cascade Mountains
TTITLE1=Steamboat (Keep Rockin')
TTITLE2=Never Leave Your Gal Too Long
TTITLE3=On Top of the Hill
TTITLE4=The Song of The Silver Dollar
TTITLE5=By The Old Oak Tree
TTITLE6=Goin Back To Texas
TTITLE7=When The Sun Goes Down In A Little Prairie Town
TTITLE8=The Wreck of the Number 9
TTITLE9=Sleepy Rio Grande
TTITLE10=Red River Valley
TTITLE11=I Tore Up Your Picture When You Said Goodbye
TTITLE12=Moonlight On The Colorado
TTITLE13=Left My Gal In The Mountains
TTITLE14=When It's Springtime In The Rockies
TTITLE15=Heroes of the Vestris
TTITLE16=When The Moon Comes Over The Mountain
TTITLE17=Tell Me That You Love Me, Dear
TTITLE18=Barnacle Bill The Sailor
TTITLE19=The Prison Fire
TTITLE20=It's The Same The Whole World Over 
EXTD=
EXTT0=
EXTT1=
EXTT2=
EXTT3=
EXTT4=
EXTT5=
EXTT6=
EXTT7=
EXTT8=
EXTT9=
EXTT10=
EXTT11=
EXTT12=
EXTT13=
EXTT14=
EXTT15=
EXTT16=
EXTT17=
EXTT18=
EXTT19=
EXTT20=
PLAYORDER=
